<svg xmlns="http://www.w3.org/2000/svg" viewBox="0 0 16 13"><path fill="#929fa9" fill-rule="evenodd" d="M11.76 9.07v1.26c0 .4-.14.75-.43 1.04-.29.29-.63.43-1.04.43H2.65c-.4 0-.75-.14-1.04-.43-.29-.29-.43-.63-.43-1.04V2.68c0-.4.14-.75.43-1.04.29-.29.63-.43 1.04-.43h7.64c.15 0 .29.03.42.07l.89-.89c-.39-.23-.83-.35-1.31-.35H2.65C1.92.04 1.3.3.78.82S0 1.95 0 2.68v7.64c0 .73.26 1.35.78 1.87s1.14.78 1.87.78h7.64c.73 0 1.35-.26 1.87-.78s.78-1.14.78-1.87V7.89l-1.18 1.18z" clip-rule="evenodd"/><path fill="#3d4c96" fill-rule="evenodd" d="M15.77 1.75c.15.15.23.33.23.55 0 .22-.08.4-.23.56L8.75 9.88a.77.77 0 0 1-.56.23c-.22 0-.4-.08-.56-.23L3.57 5.81a.747.747 0 0 1-.23-.55c0-.22.08-.4.23-.56l1.11-1.11a.77.77 0 0 1 .56-.23c.22 0 .4.08.56.23L8.19 6 13.55.63a.77.77 0 0 1 .56-.23c.22 0 .4.08.56.23l1.1 1.12z" clip-rule="evenodd"/></svg>